<svg width="97" height="81" viewBox="0 0 97 81" fill="none" xmlns="http://www.w3.org/2000/svg">
  <path d="M45.7036 80.5742V60.1687L46.129 59.7429H50.38L50.8054 60.1687V80.5742L50.38 80.9999H46.129L45.7036 80.5742Z" fill="#05BDBA"/>
  <path d="M45.7036 20.8299V0.425525L46.129 0H50.38L50.8054 0.425525V20.8299L50.38 21.2554H46.129L45.7036 20.8299Z" fill="#05BDBA"/>
  <path d="M27.2247 65.8641H26.6236L23.6182 62.8573V62.256L30.6363 55.2395L33.8188 55.2411L34.2458 55.6649V58.8476L27.2247 65.8641Z" fill="#05BDBA"/>
  <path d="M27.2218 15.1357H26.6207L23.6152 18.1427V18.7438L30.6334 25.7605L33.8159 25.759L34.2429 25.3349V22.1525L27.2218 15.1357Z" fill="#05BDBA"/>
  <path d="M0.425525 37.9492H29.3329L29.7584 38.3747V42.6254L29.3329 43.0512H0.425525L0 42.6254V38.3747L0.425525 37.9492Z" fill="#05BDBA"/>
  <path d="M67.1702 37.9482H96.0775L96.5031 38.3738V42.6245L96.0775 43.0502H67.1702L66.7446 42.6245V38.3738L67.1702 37.9482Z" fill="#05BDBA"/>
  <path d="M52.7158 51.2475L52.2904 50.8217L52.2931 38.4964C52.2931 36.3703 51.4572 34.7218 48.8905 34.6682C47.5708 34.634 46.0608 34.6652 44.4477 34.7337L44.2067 34.9807L44.2099 50.8217L43.7841 51.2475H38.6809L38.2554 50.8217V30.1764L38.6809 29.7509L50.1655 29.6467C55.9191 29.6467 58.2476 33.5999 58.2476 38.062V50.8217L57.8222 51.2475H52.7158Z" fill="#014847"/>
</svg>
