<svg width="81" height="81" viewBox="0 0 81 81" fill="none" xmlns="http://www.w3.org/2000/svg">
  <path d="M36.7336 0.371147C28.8845 1.23159 21.5044 4.2666 15.5472 9.06944C13.5302 10.6965 10.231 14.0913 8.77692 16.0312C4.63344 21.5693 1.991 27.8897 0.990314 34.695C0.646328 36.9947 0.536877 41.3908 0.755778 43.6905C1.41248 50.4645 3.57021 56.7223 7.08826 62.057C13.5615 71.8974 23.4589 78.2021 35.0919 79.9229C37.3903 80.2671 41.784 80.3766 44.0824 80.1576C50.8527 79.5005 57.107 77.3416 62.4388 73.8216C72.2737 67.3448 78.5749 57.4419 80.2948 45.8025C80.6388 43.5028 80.7483 39.1067 80.5294 36.807C79.732 28.6093 76.8081 21.3503 71.8046 15.1395C70.1785 13.1213 66.7856 9.82037 64.8467 8.36544C59.3117 4.21967 53.0417 1.60705 46.1933 0.574524C44.3013 0.292925 38.5787 0.16777 36.7336 0.371147ZM50.9465 37.1042C56.3721 46.6004 60.8127 54.3913 60.8127 54.4226C60.8127 54.4539 51.916 54.4851 41.0335 54.4851C30.151 54.4851 21.2542 54.4539 21.2542 54.4069C21.2542 54.2818 41.0022 19.7389 41.0491 19.8015C41.0647 19.8171 45.5366 27.6081 50.9465 37.1042Z" fill="#121212"/>
</svg>