<svg width="61" height="66" viewBox="0 0 61 66" fill="none" xmlns="http://www.w3.org/2000/svg">
  <path d="M25.4743 57.8714C25.4742 57.4375 25.3788 57.009 25.1946 56.6161C25.0105 56.2233 24.7422 55.8757 24.4088 55.5981C24.0753 55.3205 23.6849 55.1197 23.2652 55.0097C22.8455 54.8998 22.4068 54.8836 21.9801 54.9621C18.1074 55.6728 13.2178 55.7797 11.9177 52.1281C10.7841 49.2999 8.90632 46.8312 6.4835 44.9837C6.31063 44.8896 6.14588 44.7814 5.99094 44.6601C5.77889 44.1008 5.40226 43.6188 4.91074 43.2779C4.41921 42.937 3.83588 42.7531 3.2377 42.7505H3.22327C2.44108 42.7502 1.69064 43.0598 1.1362 43.6115C0.581756 44.1633 0.268479 44.9122 0.264934 45.6944C0.253367 48.1067 2.66414 49.6523 3.64217 50.1752C4.79545 51.334 5.72233 52.6978 6.37516 54.1967C7.45277 57.2243 10.5844 61.8178 19.5865 61.2257C19.5895 61.3297 19.5923 61.4279 19.5938 61.5174L19.6068 62.309C19.6068 63.0936 19.9184 63.8461 20.4732 64.4009C21.028 64.9557 21.7805 65.2674 22.5651 65.2674C23.3497 65.2674 24.1022 64.9557 24.6569 64.4009C25.2117 63.8461 25.5234 63.0936 25.5234 62.309L25.509 61.3672C25.4945 60.8066 25.4743 59.9948 25.4743 57.8714ZM57.0309 13.1236C57.1247 12.7538 57.2172 12.3436 57.2981 11.8813C57.7766 8.58455 57.3594 5.21975 56.0905 2.13956C55.9304 1.738 55.6844 1.37633 55.3697 1.07989C55.055 0.783455 54.6794 0.559428 54.269 0.423518C53.2158 0.0681627 49.3274 -0.63098 41.8911 4.12143C35.7098 2.66681 29.2752 2.66681 23.0938 4.12143C15.6878 -0.56137 11.8195 0.0740793 10.7765 0.409199C10.3561 0.539604 9.97008 0.762444 9.6469 1.06139C9.32372 1.36033 9.07152 1.7278 8.9088 2.13687C7.61394 5.27619 7.20137 8.70962 7.71564 12.0663C7.78789 12.4448 7.86587 12.7944 7.94678 13.115C5.49601 16.3794 4.19061 20.3611 4.23298 24.4428C4.22499 25.3535 4.26694 26.2639 4.35865 27.17C5.34673 40.7858 14.2217 44.8738 20.4056 46.2779C20.277 46.6477 20.16 47.0434 20.056 47.4623C19.8706 48.2235 19.9947 49.0271 20.4009 49.697C20.8072 50.3668 21.4625 50.8482 22.2232 51.0356C22.9839 51.223 23.7878 51.1011 24.4587 50.6966C25.1297 50.2921 25.6128 49.6381 25.8022 48.8779C25.9904 47.8923 26.4729 46.9867 27.1861 46.2807C27.6173 45.9032 27.9295 45.4085 28.0847 44.8569C28.2399 44.3052 28.2314 43.7203 28.0603 43.1733C27.8892 42.6264 27.5629 42.1409 27.1209 41.776C26.679 41.4112 26.1406 41.1826 25.5711 41.1181C15.3527 39.9509 10.9166 35.7879 10.2493 26.6269C10.1754 25.9013 10.1421 25.1721 10.1496 24.4428C10.1022 21.5338 11.0633 18.698 12.8696 16.4172C13.0511 16.1794 13.2445 15.9509 13.4489 15.7325C13.8111 15.3272 14.0546 14.83 14.1527 14.2953C14.2508 13.7607 14.1997 13.2094 14.005 12.7019C13.8054 12.168 13.6518 11.6181 13.5457 11.0581C13.3047 9.46565 13.3837 7.84115 13.7782 6.27966C16.3494 7.00585 18.7693 8.18791 20.9226 9.76954C21.2787 10.0067 21.6816 10.1646 22.1041 10.2324C22.5265 10.3002 22.9586 10.2763 23.371 10.1625C29.3501 8.53982 35.6538 8.54084 41.6324 10.1654C42.047 10.2791 42.4814 10.3016 42.9056 10.2313C43.3298 10.161 43.7337 9.99954 44.0894 9.75809C46.2327 8.16988 48.6424 6.97725 51.2051 6.23641C51.5978 7.7604 51.6857 9.34696 51.4636 10.905C51.3565 11.519 51.1891 12.1209 50.9638 12.702C50.7691 13.2095 50.718 13.7608 50.8162 14.2954C50.9143 14.83 51.1578 15.3273 51.52 15.7325C51.7482 15.9896 51.9764 16.267 52.1816 16.527C53.9751 18.7692 54.92 21.5724 54.8496 24.4428C54.855 25.2108 54.8179 25.9785 54.7384 26.7424C54.087 35.7821 49.6336 39.948 39.3675 41.1181C38.7979 41.1829 38.2594 41.4119 37.8175 41.7771C37.3756 42.1424 37.0494 42.6281 36.8785 43.1754C36.7075 43.7226 36.6993 44.3077 36.8547 44.8595C37.0102 45.4113 37.3226 45.9061 37.754 46.2836C38.4895 47.0085 38.9731 47.9502 39.1335 48.9704C39.3334 49.7623 39.4253 50.5777 39.4065 51.3942V58.299C39.3776 60.2143 39.3776 61.6502 39.3776 62.3089C39.3776 63.0935 39.6892 63.8459 40.244 64.4007C40.7988 64.9555 41.5513 65.2672 42.3359 65.2672C43.1205 65.2672 43.873 64.9555 44.4278 64.4007C44.9825 63.8459 45.2942 63.0935 45.2942 62.3089C45.2942 61.6675 45.2942 60.2606 45.3231 58.3452V51.3942C45.3469 50.0862 45.1929 48.7809 44.8652 47.5143C44.7715 47.0985 44.6568 46.6878 44.5214 46.2836C49.0218 45.536 53.1109 43.2157 56.0608 39.7357C59.0107 36.2557 60.63 31.8418 60.6305 27.2798C60.7279 26.3374 60.7733 25.3902 60.7663 24.4428C60.832 20.3566 59.5157 16.3681 57.0308 13.1237L57.0309 13.1236Z" fill="currentColor"/>
</svg>
