<svg width="63" height="62" viewBox="0 0 63 62" fill="none" xmlns="http://www.w3.org/2000/svg">
  <path d="M50.3496 27.3615C49.5208 27.3615 48.7259 27.6864 48.1399 28.2646C47.5538 28.8428 47.2246 29.6271 47.2246 30.4448V52.5832C47.2246 53.4009 46.8954 54.1852 46.3093 54.7634C45.7233 55.3417 44.9284 55.6665 44.0996 55.6665H9.72461C8.89581 55.6665 8.10095 55.3417 7.5149 54.7634C6.92885 54.1852 6.59961 53.4009 6.59961 52.5832V18.6665C6.59961 17.8488 6.92885 17.0645 7.5149 16.4863C8.10095 15.908 8.89581 15.5832 9.72461 15.5832H32.1621C32.9909 15.5832 33.7858 15.2583 34.3718 14.6801C34.9579 14.1018 35.2871 13.3176 35.2871 12.4998C35.2871 11.6821 34.9579 10.8978 34.3718 10.3196C33.7858 9.74135 32.9909 9.4165 32.1621 9.4165H9.72461C7.2382 9.4165 4.85364 10.3911 3.09548 12.1258C1.33733 13.8605 0.349609 16.2133 0.349609 18.6665V52.5832C0.349609 55.0364 1.33733 57.3892 3.09548 59.1239C4.85364 60.8586 7.2382 61.8332 9.72461 61.8332H44.0996C46.586 61.8332 48.9706 60.8586 50.7287 59.1239C52.4869 57.3892 53.4746 55.0364 53.4746 52.5832V30.4448C53.4746 29.6271 53.1454 28.8428 52.5593 28.2646C51.9733 27.6864 51.1784 27.3615 50.3496 27.3615ZM62.5996 2.07817C62.2825 1.32476 61.6757 0.726051 60.9121 0.41317C60.5364 0.255177 60.133 0.171376 59.7246 0.166504H40.9746C40.1458 0.166504 39.351 0.491354 38.7649 1.06959C38.1788 1.64783 37.8496 2.43209 37.8496 3.24984C37.8496 4.06759 38.1788 4.85185 38.7649 5.43008C39.351 6.00832 40.1458 6.33317 40.9746 6.33317H52.1934L20.0059 38.0607C19.713 38.3473 19.4805 38.6883 19.3218 39.0641C19.1632 39.4398 19.0815 39.8428 19.0815 40.2498C19.0815 40.6569 19.1632 41.0599 19.3218 41.4356C19.4805 41.8114 19.713 42.1524 20.0059 42.439C20.2964 42.728 20.642 42.9574 21.0228 43.1139C21.4036 43.2705 21.8121 43.3511 22.2246 43.3511C22.6371 43.3511 23.0456 43.2705 23.4264 43.1139C23.8072 42.9574 24.1529 42.728 24.4434 42.439L56.5996 10.6807V21.7498C56.5996 22.5676 56.9288 23.3518 57.5149 23.9301C58.1009 24.5083 58.8958 24.8332 59.7246 24.8332C60.5534 24.8332 61.3483 24.5083 61.9343 23.9301C62.5204 23.3518 62.8496 22.5676 62.8496 21.7498V3.24984C62.8447 2.84692 62.7597 2.44886 62.5996 2.07817Z" fill="currentColor"/>
</svg>
