<svg xmlns="http://www.w3.org/2000/svg" width="1200" height="675" viewBox="0 0 1200 675" font-family="ui-sans-serif, system-ui, sans-serif">
  <rect width="1200" height="675" fill="#02031d"/>
  <text x="60" y="70" fill="#fafafa" font-size="42" font-weight="700">Training &amp; eval loss</text>
  <text x="60" y="104" fill="#9a9cc0" font-size="21">Qwen2.5-Coder-1.5B · LoRA fine-tune on a Colab A100</text>
  <g transform="translate(905,58)" font-size="19">
    <line x1="0" y1="-6" x2="26" y2="-6" stroke="#6f7191" stroke-width="3"/>
    <text x="32" y="0" fill="#9a9cc0">train</text>
    <line x1="118" y1="-6" x2="146" y2="-6" stroke="#7c82ff" stroke-width="4"/>
    <text x="152" y="0" fill="#cdd0ff">eval</text>
  </g>
  <g transform="translate(28,140)"><svg class="plot-d6a7b5" fill="currentColor" font-family="system-ui, sans-serif" font-size="10" text-anchor="middle" width="1120" height="460" viewBox="0 0 1120 460" style="background: transparent; color: rgb(174, 176, 200); font-size: 17px; font-family: ui-sans-serif, system-ui, sans-serif;"><style>:where(.plot-d6a7b5) {
  --plot-background: white;
  display: block;
  height: auto;
  height: intrinsic;
  max-width: 100%;
}
:where(.plot-d6a7b5 text),
:where(.plot-d6a7b5 tspan) {
  white-space: pre;
}</style><g aria-label="y-grid" aria-hidden="true" stroke="currentColor" stroke-opacity="0.1" transform="translate(0,0.5)"><line x1="74" x2="1092" y1="406" y2="406"></line><line x1="74" x2="1092" y1="367.00000000000006" y2="367.00000000000006"></line><line x1="74" x2="1092" y1="328" y2="328"></line><line x1="74" x2="1092" y1="289.00000000000006" y2="289.00000000000006"></line><line x1="74" x2="1092" y1="250.00000000000003" y2="250.00000000000003"></line><line x1="74" x2="1092" y1="211" y2="211"></line><line x1="74" x2="1092" y1="171.99999999999997" y2="171.99999999999997"></line><line x1="74" x2="1092" y1="133.0000000000001" y2="133.0000000000001"></line><line x1="74" x2="1092" y1="94.00000000000007" y2="94.00000000000007"></line><line x1="74" x2="1092" y1="55.000000000000036" y2="55.000000000000036"></line><line x1="74" x2="1092" y1="16" y2="16"></line></g><g aria-label="y-axis tick" aria-hidden="true" fill="none" stroke="currentColor" transform="translate(0,0.5)"><path transform="translate(74,406)" d="M0,0L-6,0"></path><path transform="translate(74,367.00000000000006)" d="M0,0L-6,0"></path><path transform="translate(74,328)" d="M0,0L-6,0"></path><path transform="translate(74,289.00000000000006)" d="M0,0L-6,0"></path><path transform="translate(74,250.00000000000003)" d="M0,0L-6,0"></path><path transform="translate(74,211)" d="M0,0L-6,0"></path><path transform="translate(74,171.99999999999997)" d="M0,0L-6,0"></path><path transform="translate(74,133.0000000000001)" d="M0,0L-6,0"></path><path transform="translate(74,94.00000000000007)" d="M0,0L-6,0"></path><path transform="translate(74,55.000000000000036)" d="M0,0L-6,0"></path><path transform="translate(74,16)" d="M0,0L-6,0"></path></g><g aria-label="y-axis tick label" text-anchor="end" font-variant="tabular-nums" transform="translate(-8.5,0.5)"><text y="0.32em" transform="translate(74,406)">0.80</text><text y="0.32em" transform="translate(74,367.00000000000006)">0.85</text><text y="0.32em" transform="translate(74,328)">0.90</text><text y="0.32em" transform="translate(74,289.00000000000006)">0.95</text><text y="0.32em" transform="translate(74,250.00000000000003)">1.00</text><text y="0.32em" transform="translate(74,211)">1.05</text><text y="0.32em" transform="translate(74,171.99999999999997)">1.10</text><text y="0.32em" transform="translate(74,133.0000000000001)">1.15</text><text y="0.32em" transform="translate(74,94.00000000000007)">1.20</text><text y="0.32em" transform="translate(74,55.000000000000036)">1.25</text><text y="0.32em" transform="translate(74,16)">1.30</text></g><g aria-label="y-axis label" text-anchor="start" transform="translate(-70.5,-12.5)"><text y="0.71em" transform="translate(74,16)">↑ loss</text></g><g aria-label="x-axis tick" aria-hidden="true" fill="none" stroke="currentColor" transform="translate(0.5,0)"><path transform="translate(188.14645308924486,406)" d="M0,0L0,6"></path><path transform="translate(304.6224256292906,406)" d="M0,0L0,6"></path><path transform="translate(421.0983981693364,406)" d="M0,0L0,6"></path><path transform="translate(537.5743707093822,406)" d="M0,0L0,6"></path><path transform="translate(654.050343249428,406)" d="M0,0L0,6"></path><path transform="translate(770.5263157894736,406)" d="M0,0L0,6"></path><path transform="translate(887.0022883295194,406)" d="M0,0L0,6"></path><path transform="translate(1003.4782608695651,406)" d="M0,0L0,6"></path></g><g aria-label="x-axis tick label" font-variant="tabular-nums" transform="translate(0.5,9.5)"><text y="0.71em" transform="translate(188.14645308924486,406)">50</text><text y="0.71em" transform="translate(304.6224256292906,406)">100</text><text y="0.71em" transform="translate(421.0983981693364,406)">150</text><text y="0.71em" transform="translate(537.5743707093822,406)">200</text><text y="0.71em" transform="translate(654.050343249428,406)">250</text><text y="0.71em" transform="translate(770.5263157894736,406)">300</text><text y="0.71em" transform="translate(887.0022883295194,406)">350</text><text y="0.71em" transform="translate(1003.4782608695651,406)">400</text></g><g aria-label="x-axis label" text-anchor="end" transform="translate(25.5,51.5)"><text transform="translate(1092,406)">training step →</text></g><g aria-label="line" fill="none" stroke="#6f7191" stroke-width="2.5" stroke-linejoin="round" stroke-linecap="round" transform="translate(0.5,0.5)"><path d="M74,106.179L94.966,37.52L118.261,84.175L141.556,115.154L164.851,142.085L188.146,193.167L211.442,252.228L234.737,296.479L258.032,306.653L281.327,341.687L304.622,336.598L327.918,340.245L351.213,338.884L374.508,324.048L397.803,367.887L421.098,345.282L444.394,368.924L467.689,349.394L490.984,357.993L514.279,357.645L537.574,353.563L560.87,360.559L584.165,374.243L607.46,379.233L630.755,363.12L654.05,380.278L677.346,366.528L700.641,359.844L723.936,396.62L747.231,376.674L770.526,364.527L793.822,387.027L817.117,372.806L840.412,390.045L863.707,384.077L887.002,378.165L910.297,396.101L933.593,385.104L956.888,383.671L980.183,379.455L1003.478,366.692L1026.773,381.296L1050.069,357.681L1073.364,368.814"></path></g><g aria-label="line" fill="none" stroke="#7c82ff" stroke-width="4" stroke-linejoin="round" stroke-linecap="round" transform="translate(0.5,0.5)"><path d="M188.146,209.188L304.622,325.108L421.098,345.833L537.574,354.848L654.05,361.096L770.526,365.146L887.002,367.214L1003.478,367.967L1092,368.043"></path></g><g aria-label="dot" fill="#7c82ff" stroke="#7c82ff" stroke-width="1.5" transform="translate(0.5,0.5)"><circle cx="188.14645308924486" cy="209.18825864791873" r="5"></circle><circle cx="304.6224256292906" cy="325.10772824287415" r="5"></circle><circle cx="421.0983981693364" cy="345.833135843277" r="5"></circle><circle cx="537.5743707093822" cy="354.84809398651123" r="5"></circle><circle cx="654.050343249428" cy="361.09596371650696" r="5"></circle><circle cx="770.5263157894736" cy="365.14598846435547" r="5"></circle><circle cx="887.0022883295194" cy="367.21388936042786" r="5"></circle><circle cx="1003.4782608695651" cy="367.9672396183014" r="5"></circle><circle cx="1092" cy="368.04325342178345" r="5"></circle></g></svg></g>
</svg>
